<svg xmlns="http://www.w3.org/2000/svg" viewBox="0 0 130 130"><defs><style>.cls-1{fill:#fefefe;}.cls-2{fill:#ee7c32;}</style></defs><title>Ativo 2</title><g id="Camada_2" data-name="Camada 2"><g id="Camada_1-2" data-name="Camada 1"><path class="cls-1" d="M0,65.55C0,28.1,27.52,0,64.33,0,101.67,0,130,28,130,64.92S101.7,130,64.46,130C28,130,0,102,0,65.55Z"/><path class="cls-2" d="M53.92,31.57c-3.61-3.12-6.61-6.54-7.83-11.25-1.34-5.2-.8-5.87,4.61-4.91C58.44,16.8,62.9,21.63,64.92,30c1.82-5.68,4.35-9.65,9.6-11,1.25-.32,2.73-1.09,3.74,0s.35,2.57,0,3.8a13,13,0,0,1-6.32,7.87c9.79,2.94,17.28,7.8,22.23,15.89A33.32,33.32,0,0,1,98.27,72.9a34.39,34.39,0,0,1-66.62-.13C27.49,56.06,35,42.06,53.92,31.57Z"/></g></g></svg>